<svg width="104" height="26" viewBox="0 0 104 26" fill="none" xmlns="http://www.w3.org/2000/svg">
<path d="M49.9221 13.0381L49.9221 13.0105L49.923 12.9829C50.1196 6.80188 44.8601 1.7494 38.9795 1.7494C33.1745 1.7494 28.088 6.54867 28.087 12.9275C28.086 19.3553 33.2438 24.2505 39.0863 24.2505C44.8806 24.2505 49.9209 19.4347 49.9221 13.0381Z" fill="white" stroke="#323232" stroke-width="3.5"/>
<path d="M38.8572 16.1325C49.6964 15.1782 58.3233 12.2467 58.1334 9.58259C58.0297 8.12196 55.3093 7.04988 51.0993 6.53011C51.2484 7.26706 51.3273 8.07396 51.2068 8.79999C51.9143 9.15653 52.3419 9.60046 52.3801 10.1346C52.5452 12.4196 45.5774 14.2751 38.9438 14.8577C32.3036 15.4417 25.1595 14.8292 24.9945 12.5442C24.9525 11.9491 25.4024 11.3791 26.2039 10.8574C26.0174 10.1422 25.8893 9.40759 25.8021 8.67113C21.4783 9.94 18.7821 11.5263 18.8872 13.0347C19.0838 15.6974 28.0192 17.0935 38.8572 16.1325Z" fill="#323232"/>
<path d="M11.6255 23.709C13.5841 23.709 15.39 23.2239 17.0326 22.2517C18.6913 21.2815 19.9642 19.9747 20.8392 18.3345L21.0671 17.9074L20.6476 17.6658L18.8526 16.632L18.395 16.3685L18.1568 16.8398C17.5642 18.0124 16.6857 18.9472 15.5096 19.6487C14.3349 20.3493 13.0438 20.7005 11.6255 20.7005C9.21961 20.7005 7.28949 19.9098 5.79093 18.3441C4.28313 16.7688 3.52667 14.8372 3.52667 12.5166C3.52667 10.196 4.28313 8.26442 5.79093 6.68911C7.28949 5.12344 9.21961 4.33273 11.6255 4.33273C13.0438 4.33273 14.3349 4.68394 15.5096 5.38457C16.6857 6.08604 17.5642 7.02085 18.1568 8.19346L18.3979 8.67056L18.8579 8.39811L20.6529 7.33477L21.0683 7.08873L20.837 6.665C19.9433 5.02804 18.6718 3.73163 17.0317 2.78098C15.3893 1.80921 13.5837 1.32422 11.6255 1.32422C8.43119 1.32422 5.76044 2.40594 3.65231 4.57731C1.55054 6.74214 0.5 9.39907 0.5 12.5166C0.5 15.6342 1.55054 18.2911 3.65231 20.4559C5.76044 22.6273 8.43119 23.709 11.6255 23.709ZM59.4215 22.8545C59.4215 22.8545 59.4215 22.8546 59.9215 22.8546H59.4215V23.3546H59.9215H61.9482H62.4482V22.8546V13.696H65.2761C65.5247 16.4274 66.6151 18.7593 68.545 20.6697L68.5468 20.6715C70.6113 22.6951 73.1313 23.709 76.077 23.709C79.1431 23.709 81.7527 22.6226 83.8748 20.4576L83.8764 20.4559C85.9959 18.2731 87.0577 15.6169 87.0577 12.5166C87.0577 9.41679 85.9961 6.76982 83.8758 4.60618C81.7542 2.42144 79.1444 1.32422 76.077 1.32422C73.2522 1.32422 70.8135 2.26545 68.7882 4.14565C66.8747 5.92209 65.7217 8.12911 65.3315 10.7465H62.4482V2.17866V1.67866H61.9482H59.9215H59.4305L59.4216 2.16956L59.9215 2.17866L59.4216 2.16961V2.16976L59.4216 2.17034L59.4215 2.17257L59.4214 2.18135L59.4208 2.21545L59.4186 2.34476C59.4167 2.45618 59.4141 2.61544 59.4112 2.80697C59.4054 3.18993 59.3985 3.70231 59.3938 4.21931C59.3892 4.73569 59.3869 5.25917 59.3904 5.66339C59.3921 5.86483 59.3954 6.04095 59.4007 6.17319C59.4034 6.23849 59.4068 6.29943 59.4116 6.34985C59.4139 6.37446 59.4172 6.40401 59.4223 6.43371L59.4226 6.43539C59.425 6.45 59.4378 6.52836 59.4802 6.60791C60.3076 8.16186 60.2863 9.28736 60.0987 10.0211C60.003 10.3952 59.8595 10.6854 59.7372 10.8962C59.6875 10.9817 59.6434 11.051 59.6027 11.1149C59.5919 11.1318 59.5814 11.1483 59.5711 11.1646C59.5492 11.1994 59.5215 11.2437 59.499 11.2862C59.4876 11.3077 59.4718 11.3394 59.4579 11.3769C59.4464 11.4078 59.4215 11.4802 59.4215 11.5732V11.5744V11.5759V11.5776V11.5796V11.5818V11.5842V11.5869V11.5899V11.5931V11.5965V11.6002V11.6041V11.6082V11.6126V11.6172V11.6221V11.6272V11.6325V11.638V11.6438V11.6498V11.6561V11.6626V11.6693V11.6762V11.6833V11.6907V11.6983V11.7061V11.7141V11.7224V11.7309V11.7396V11.7485V11.7576V11.767V11.7765V11.7863V11.7963V11.8065V11.8169V11.8275V11.8383V11.8493V11.8606V11.872V11.8837V11.8955V11.9076V11.9198V11.9323V11.9449V11.9578V11.9708V11.9841V11.9975V12.0111V12.025V12.039V12.0532V12.0676V12.0822V12.097V12.1119V12.1271V12.1424V12.158V12.1737V12.1896V12.2056V12.2219V12.2383V12.255V12.2717V12.2887V12.3059V12.3232V12.3407V12.3583V12.3762V12.3942V12.4124V12.4307V12.4492V12.4679V12.4868V12.5058V12.5249V12.5443V12.5638V12.5835V12.6033V12.6233V12.6434V12.6637V12.6842V12.7048V12.7255V12.7464V12.7675V12.7887V12.8101V12.8316V12.8533V12.8751V12.8971V12.9192V12.9414V12.9638V12.9864V13.009V13.0319V13.0548V13.0779V13.1012V13.1245V13.148V13.1717V13.1955V13.2194V13.2434V13.2676V13.2919V13.3163V13.3409V13.3655V13.3903V13.4153V13.4403V13.4655V13.4908V13.5162V13.5418V13.5674V13.5932V13.6191V13.6451V13.6712V13.6975V13.7238V13.7503V13.7769V13.8036V13.8304V13.8573V13.8843V13.9114V13.9386V13.9659V13.9934V14.0209V14.0485V14.0763V14.1041V14.132V14.16V14.1882V14.2164V14.2447V14.2731V14.3016V14.3302V14.3589V14.3876V14.4165V14.4454V14.4744V14.5036V14.5328V14.562V14.5914V14.6209V14.6504V14.68V14.7097V14.7394V14.7693V14.7992V14.8292V14.8592V14.8894V14.9196V14.9499V14.9802V15.0106V15.0411V15.0717V15.1023V15.133V15.1637V15.1945V15.2254V15.2563V15.2873V15.3183V15.3494V15.3806V15.4118V15.4431V15.4744V15.5058V15.5372V15.5687V15.6003V15.6318V15.6635V15.6951V15.7269V15.7586V15.7904V15.8223V15.8542V15.8861V15.9181V15.9501V15.9822V16.0143V16.0464V16.0786V16.1108V16.143V16.1753V16.2076V16.2399V16.2723V16.3046V16.337V16.3695V16.4019V16.4344V16.4669V16.4995V16.532V16.5646V16.5972V16.6298V16.6624V16.6951V16.7278V16.7604V16.7931V16.8258V16.8585V16.8913V16.924V16.9567V16.9895V17.0223V17.055V17.0878V17.1206V17.1533V17.1861V17.2189V17.2517V17.2844V17.3172V17.35V17.3828V17.4155V17.4483V17.481V17.5138V17.5465V17.5792V17.6119V17.6446V17.6773V17.71V17.7426V17.7753V17.8079V17.8405V17.8731V17.9057V17.9382V17.9707V18.0032V18.0357V18.0682V18.1006V18.133V18.1654V18.1977V18.23V18.2623V18.2946V18.3268V18.359V18.3911V18.4232V18.4553V18.4874V18.5194V18.5513V18.5832V18.6151V18.647V18.6788V18.7105V18.7422V18.7739V18.8055V18.837V18.8686V18.9V18.9314V18.9628V18.9941V19.0254V19.0566V19.0877V19.1188V19.1498V19.1808V19.2117V19.2425V19.2733V19.304V19.3347V19.3653V19.3958V19.4263V19.4566V19.487V19.5172V19.5474V19.5775V19.6075V19.6375V19.6674V19.6972V19.7269V19.7566V19.7862V19.8157V19.8451V19.8744V19.9037V19.9328V19.9619V19.9909V20.0198V20.0486V20.0774V20.106V20.1346V20.163V20.1914V20.2197V20.2479V20.2759V20.3039V20.3318V20.3596V20.3873V20.4149V20.4424V20.4698V20.4971V20.5242V20.5513V20.5783V20.6052V20.6319V20.6585V20.6851V20.7115V20.7378V20.764V20.7901V20.8161V20.8419V20.8676V20.8933V20.9188V20.9441V20.9694V20.9945V21.0195V21.0444V21.0692V21.0938V21.1183V21.1427V21.167V21.1911V21.2151V21.2389V21.2626V21.2862V21.3097V21.333V21.3562V21.3792V21.4021V21.4249V21.4475V21.47V21.4924V21.5146V21.5366V21.5585V21.5803V21.6019V21.6234V21.6447V21.6658V21.6868V21.7077V21.7284V21.749V21.7694V21.7896V21.8097V21.8296V21.8494V21.869V21.8884V21.9077V21.9268V21.9457V21.9645V21.9832V22.0016V22.0199V22.038V22.0559V22.0737V22.0913V22.1087V22.126V22.1431V22.16V22.1767V22.1933V22.2096V22.2258V22.2418V22.2576V22.2733V22.2887V22.304V22.3191V22.334V22.3487V22.3632V22.3775V22.3917V22.4056V22.4194V22.433V22.4463V22.4595V22.4725V22.4852V22.4978V22.5102V22.5224V22.5343V22.5461V22.5577V22.569V22.5802V22.5912V22.6019V22.6124V22.6228V22.6329V22.6428V22.6525V22.6619V22.6712V22.6803V22.6891V22.6977V22.7061V22.7143V22.7222V22.7299V22.7375V22.7447V22.7518V22.7586V22.7653V22.7716V22.7778V22.7837V22.7894V22.7949V22.8001V22.8051V22.8099V22.8144V22.8187V22.8228V22.8266V22.8301V22.8335V22.8366V22.8394V22.842V22.8444V22.8465V22.8484V22.85V22.8514V22.8526V22.8534V22.8541V22.8545ZM81.7379 6.7187L81.7399 6.7208C83.267 8.2973 84.0311 10.2188 84.0311 12.5166C84.0311 14.8142 83.2672 16.7464 81.7386 18.3433C80.2145 19.916 78.3385 20.7005 76.077 20.7005C73.8154 20.7005 71.9394 19.916 70.4153 18.3433C68.8867 16.7464 68.1229 14.8142 68.1229 12.5166C68.1229 10.2188 68.8869 8.2973 70.414 6.72081L70.416 6.7187C71.9408 5.12605 73.8167 4.33273 76.077 4.33273C78.3372 4.33273 80.2131 5.12605 81.7379 6.7187ZM98.356 10.2718L98.0269 9.89542C97.3301 10.5048 96.3677 10.8351 95.0844 10.8351H93.492H92.992V11.3351V13.2846V13.7846H93.492H95.8082C97.1283 13.7846 98.0916 14.1333 98.7653 14.7703L98.7652 14.7704L98.7746 14.7789C99.4702 15.404 99.8248 16.2191 99.8248 17.2721C99.8248 18.312 99.4509 19.1361 98.698 19.7858C97.9495 20.4124 96.8546 20.7596 95.345 20.7596C93.8121 20.7596 92.7198 20.4204 91.9931 19.8163C91.2411 19.1545 90.7584 18.3593 90.5329 17.421L90.3763 16.7698L89.7965 17.105L88.0593 18.1093L87.7068 18.3131L87.835 18.6995C88.3116 20.1371 89.1739 21.3321 90.4088 22.277C91.6786 23.2486 93.3405 23.709 95.345 23.709C97.5737 23.709 99.4014 23.134 100.771 21.9305L100.771 21.9301C102.155 20.7106 102.851 19.1451 102.851 17.2721C102.851 15.9806 102.518 14.8345 101.835 13.8552C101.326 13.1249 100.665 12.5393 99.8611 12.096C100.471 11.6499 100.965 11.124 101.332 10.5153C101.849 9.65811 102.099 8.66508 102.099 7.5544C102.099 5.78428 101.454 4.29145 100.173 3.11165C98.8861 1.90765 97.2122 1.32422 95.2002 1.32422C93.4087 1.32422 91.8919 1.72511 90.687 2.56617L90.6836 2.56857C89.5223 3.39368 88.6712 4.48592 88.1346 5.83349L87.9771 6.22906L88.3425 6.44759L90.0217 7.45185L90.5405 7.76213L90.748 7.19431C91.1135 6.19387 91.6616 5.47598 92.3778 5.00321C93.0971 4.52839 94.0272 4.27366 95.2002 4.27366C96.4635 4.27366 97.3913 4.60337 98.0468 5.20529L98.0467 5.20542L98.0566 5.21405C98.7328 5.80293 99.0721 6.55838 99.0721 7.52486C99.0721 8.50998 98.7239 9.28595 98.0269 9.89541L98.356 10.2718Z" fill="#323232" stroke="#323232"/>
</svg>
