<svg width="164" height="47" viewBox="0 0 164 47" fill="none" xmlns="http://www.w3.org/2000/svg">
<path fill-rule="evenodd" clip-rule="evenodd" d="M29.9213 25.182C30.3961 29.819 45.1554 32.1547 62.9062 30.3633C80.6593 28.5835 94.6652 23.3828 94.2012 18.7432C93.735 14.0922 78.9671 11.7706 61.2141 13.5504C43.461 15.3302 29.4573 20.5424 29.9213 25.182ZM39.9269 24.2614C39.5254 20.2821 50.8691 16.9855 61.7318 15.8873C72.6076 14.798 84.3793 15.7879 84.7808 19.7672C85.1822 23.7465 73.8408 27.0546 62.9758 28.1413C52.1001 29.2306 40.3283 28.2407 39.9269 24.2614Z" fill="white"/>
<path d="M45.4426 24.4871C45.9395 34.7803 54.2241 42.2888 63.7068 41.5283C73.1997 40.767 80.6881 31.9943 80.1912 21.7002C79.6942 11.4061 71.42 3.89764 61.927 4.65899C52.4444 5.41951 44.9457 14.1939 45.4426 24.4871Z" fill="#323232" stroke="white" stroke-width="4.5"/>
<path d="M62.9069 30.3638C80.6597 28.5841 94.6654 23.3838 94.2014 18.7446C93.9478 16.2011 89.4175 14.3628 82.4714 13.5028C82.7584 14.785 82.9341 16.1899 82.7774 17.4561C83.9601 18.0695 84.6879 18.8383 84.7811 19.7685C85.1825 23.7475 73.8414 27.0553 62.9765 28.142C52.1009 29.2312 40.3293 28.2414 39.9279 24.2623C39.825 23.226 40.5315 22.2282 41.8186 21.3106C41.4714 20.0666 41.2191 18.7883 41.0338 17.5062C34.0028 19.7635 29.6638 22.5562 29.9225 25.1829C30.3972 29.8196 45.1563 32.1551 62.9069 30.3638Z" fill="white"/>
<path d="M17.9838 42.1211C21.0623 42.1211 23.8958 41.3632 26.474 39.8453C29.0795 38.3295 31.0745 36.2911 32.4465 33.7331L32.6763 33.3046L32.2544 33.0629L29.3852 31.4193L28.9291 31.158L28.6909 31.6266C27.7175 33.5425 26.2734 35.07 24.3464 36.2132C22.4208 37.3555 20.3035 37.9277 17.9838 37.9277C14.064 37.9277 10.8978 36.6427 8.44074 34.0893C5.97464 31.5265 4.73942 28.3813 4.73942 24.6211C4.73942 20.8609 5.97464 17.7157 8.44074 15.1529C10.8978 12.5995 14.064 11.3145 17.9838 11.3145C20.3035 11.3145 22.4208 11.8866 24.3464 13.029C26.2734 14.1722 27.7175 15.6997 28.6909 17.6155L28.932 18.09L29.3905 17.8198L32.2597 16.1292L32.6776 15.883L32.4442 15.4579C31.042 12.9031 29.0484 10.8809 26.4729 9.39625C23.8951 7.87882 21.0619 7.12109 17.9838 7.12109C12.9539 7.12109 8.76458 8.81205 5.45504 12.2028C2.15173 15.5871 0.5 19.7371 0.5 24.6211C0.5 29.5051 2.15173 33.655 5.45504 37.0394C8.76458 40.4301 12.9539 42.1211 17.9838 42.1211ZM94.7789 41.0575C94.8498 41.0576 94.9714 41.0576 95.18 41.0576H94.68V41.5576H95.18H98.4195H98.9195V41.0576V26.2012H104.014C104.357 30.5936 106.079 34.3261 109.175 37.3752L109.177 37.3769C112.42 40.5386 116.372 42.1211 121.003 42.1211C125.824 42.1211 129.917 40.4255 133.252 37.0411L133.254 37.0394C136.587 33.6254 138.255 29.4762 138.255 24.6211C138.255 19.7665 136.587 15.6324 133.254 12.2493C129.919 8.83339 125.825 7.12109 121.003 7.12109C116.562 7.12109 112.737 8.5903 109.557 11.5272C106.488 14.3611 104.664 17.893 104.087 22.1018H98.9195V8.18463V7.68463H98.4195H95.18H94.6891L94.6801 8.17548L94.6801 8.17579L94.6801 8.17669L94.68 8.18023L94.6798 8.19413L94.6788 8.24826L94.6753 8.45364C94.6723 8.63064 94.6681 8.88368 94.6635 9.18799C94.6543 9.79653 94.6432 10.6105 94.6358 11.4317C94.6284 12.2522 94.6247 13.0825 94.6303 13.7225C94.633 14.0419 94.6382 14.3182 94.6466 14.5237C94.6507 14.6257 94.6559 14.7165 94.6628 14.789C94.6662 14.8247 94.6706 14.8634 94.677 14.9001L94.6774 14.9025C94.6809 14.9232 94.6951 15.0066 94.7392 15.0891C96.0941 17.6201 96.0725 19.4841 95.7533 20.7259C95.5918 21.3541 95.3494 21.841 95.1447 22.1918C95.062 22.3336 94.9874 22.4501 94.9221 22.5521C94.9053 22.5783 94.8891 22.6035 94.8736 22.628C94.8382 22.6837 94.7997 22.7454 94.7697 22.8018C94.7545 22.8304 94.7357 22.8682 94.7197 22.9109C94.7062 22.9472 94.68 23.0242 94.68 23.1211V23.123V23.1254V23.1281V23.1313V23.1348V23.1387V23.143V23.1477V23.1528V23.1582V23.164V23.1703V23.1768V23.1838V23.1912V23.1989V23.207V23.2154V23.2242V23.2334V23.243V23.2529V23.2632V23.2739V23.2849V23.2962V23.3079V23.32V23.3324V23.3452V23.3584V23.3718V23.3857V23.3998V23.4143V23.4292V23.4444V23.4599V23.4758V23.492V23.5085V23.5254V23.5426V23.5602V23.578V23.5962V23.6147V23.6336V23.6527V23.6722V23.692V23.7121V23.7326V23.7533V23.7744V23.7957V23.8174V23.8394V23.8617V23.8843V23.9072V23.9304V23.9539V23.9777V24.0018V24.0262V24.0509V24.0758V24.1011V24.1267V24.1525V24.1786V24.2051V24.2318V24.2587V24.286V24.3135V24.3413V24.3694V24.3978V24.4264V24.4553V24.4845V24.5139V24.5436V24.5736V24.6038V24.6343V24.6651V24.6961V24.7274V24.7589V24.7906V24.8227V24.8549V24.8875V24.9202V24.9532V24.9865V25.02V25.0537V25.0877V25.1219V25.1564V25.1911V25.226V25.2611V25.2965V25.3321V25.368V25.404V25.4403V25.4768V25.5135V25.5505V25.5876V25.625V25.6626V25.7004V25.7384V25.7766V25.815V25.8537V25.8925V25.9316V25.9708V26.0102V26.0499V26.0897V26.1298V26.17V26.2104V26.251V26.2918V26.3328V26.374V26.4153V26.4569V26.4986V26.5405V26.5826V26.6248V26.6672V26.7098V26.7526V26.7955V26.8387V26.8819V26.9254V26.969V27.0128V27.0567V27.1008V27.145V27.1894V27.234V27.2787V27.3236V27.3686V27.4137V27.459V27.5045V27.5501V27.5958V27.6417V27.6877V27.7339V27.7802V27.8266V27.8731V27.9198V27.9667V28.0136V28.0607V28.1079V28.1552V28.2026V28.2502V28.2979V28.3457V28.3936V28.4416V28.4897V28.538V28.5863V28.6348V28.6834V28.7321V28.7808V28.8297V28.8787V28.9278V28.977V29.0262V29.0756V29.125V29.1746V29.2242V29.2739V29.3238V29.3736V29.4236V29.4737V29.5238V29.574V29.6243V29.6747V29.7251V29.7756V29.8262V29.8769V29.9276V29.9783V30.0292V30.0801V30.1311V30.1821V30.2332V30.2843V30.3355V30.3867V30.438V30.4894V30.5408V30.5922V30.6437V30.6952V30.7468V30.7984V30.8501V30.9018V30.9535V31.0053V31.057V31.1089V31.1607V31.2126V31.2645V31.3164V31.3684V31.4204V31.4724V31.5244V31.5764V31.6285V31.6805V31.7326V31.7847V31.8368V31.8889V31.941V31.9931V32.0452V32.0973V32.1494V32.2015V32.2536V32.3057V32.3578V32.4099V32.462V32.5141V32.5661V32.6182V32.6702V32.7222V32.7742V32.8261V32.8781V32.93V32.9819V33.0338V33.0856V33.1374V33.1892V33.241V33.2927V33.3443V33.396V33.4476V33.4991V33.5506V33.6021V33.6535V33.7049V33.7562V33.8075V33.8587V33.9099V33.961V34.0121V34.0631V34.114V34.1649V34.2157V34.2665V34.3172V34.3678V34.4184V34.4688V34.5193V34.5696V34.6199V34.67V34.7201V34.7702V34.8201V34.87V34.9197V34.9694V35.019V35.0685V35.118V35.1673V35.2165V35.2657V35.3147V35.3637V35.4125V35.4612V35.5099V35.5584V35.6068V35.6551V35.7034V35.7515V35.7994V35.8473V35.8951V35.9427V35.9902V36.0376V36.0849V36.132V36.179V36.2259V36.2727V36.3194V36.3659V36.4122V36.4585V36.5046V36.5505V36.5964V36.642V36.6876V36.733V36.7782V36.8233V36.8683V36.9131V36.9578V37.0023V37.0466V37.0908V37.1348V37.1787V37.2224V37.2659V37.3093V37.3525V37.3956V37.4385V37.4812V37.5237V37.5661V37.6083V37.6503V37.6921V37.7337V37.7752V37.8165V37.8576V37.8985V37.9392V37.9798V38.0201V38.0603V38.1002V38.14V38.1796V38.2189V38.2581V38.2971V38.3358V38.3744V38.4127V38.4509V38.4888V38.5265V38.564V38.6013V38.6384V38.6753V38.7119V38.7483V38.7845V38.8205V38.8562V38.8918V38.927V38.9621V38.9969V39.0315V39.0659V39.1V39.1339V39.1676V39.201V39.2341V39.267V39.2997V39.3321V39.3643V39.3963V39.4279V39.4594V39.4905V39.5214V39.5521V39.5825V39.6126V39.6425V39.6721V39.7014V39.7305V39.7593V39.7878V39.8161V39.8441V39.8718V39.8992V39.9263V39.9532V39.9798V40.0061V40.0321V40.0579V40.0833V40.1085V40.1333V40.1579V40.1822V40.2062V40.2299V40.2533V40.2763V40.2991V40.3216V40.3438V40.3657V40.3872V40.4085V40.4294V40.45V40.4703V40.4903V40.51V40.5294V40.5484V40.5671V40.5855V40.6036V40.6213V40.6387V40.6558V40.6726V40.689V40.7051V40.7208V40.7362V40.7513V40.766V40.7804V40.7944V40.8081V40.8215V40.8345V40.8471V40.8594V40.8714V40.8829V40.8942V40.905V40.9156V40.9257V40.9355V40.9449V40.954V40.9626V40.971V40.9789V40.9865V40.9937V41.0005V41.007V41.013V41.0187V41.024V41.0289V41.0335V41.0376V41.0414V41.0448V41.0478V41.0504V41.0526V41.0544V41.0558V41.0568V41.0574C94.68 41.0574 94.68 41.0575 94.7789 41.0575ZM130.268 15.1999L130.27 15.202C132.767 17.766 134.016 20.8953 134.016 24.6211C134.016 28.347 132.767 31.4931 130.268 34.0893C127.774 36.6491 124.697 37.9277 121.003 37.9277C117.308 37.9277 114.23 36.6488 111.736 34.0881C109.238 31.4921 107.99 28.3464 107.99 24.6211C107.99 20.8953 109.238 17.766 111.735 15.202L111.737 15.1999C114.232 12.6079 117.31 11.3145 121.003 11.3145C124.696 11.3145 127.774 12.6079 130.268 15.1999ZM161.929 26.917C161.055 25.6705 159.89 24.6956 158.447 23.9884C159.579 23.2431 160.473 22.3444 161.114 21.2878C161.908 19.9774 162.297 18.4526 162.297 16.7316C162.297 13.9964 161.3 11.7018 159.313 9.88337C157.322 8.02932 154.724 7.12109 151.569 7.12109C148.75 7.12109 146.391 7.74827 144.528 9.04186L144.524 9.04426C142.716 10.3221 141.391 12.0125 140.554 14.1038L140.395 14.5007L140.763 14.7193L143.447 16.316L143.964 16.6238L144.172 16.0587C144.774 14.4197 145.685 13.2225 146.892 12.4299C148.103 11.6352 149.651 11.2205 151.569 11.2205C153.642 11.2205 155.205 11.7597 156.323 12.7803L156.323 12.7805L156.333 12.7891C157.482 13.7848 158.057 15.0686 158.057 16.6846C158.057 18.3309 157.467 19.6468 156.286 20.6748C155.104 21.7028 153.488 22.2426 151.384 22.2426H148.839H148.339V22.7426V25.8421V26.3421H148.839H152.541C154.705 26.3421 156.327 26.9119 157.474 27.9908L157.474 27.991L157.484 27.9994C158.664 29.0546 159.261 30.4328 159.261 32.1819C159.261 33.9178 158.628 35.3108 157.355 36.4022C156.087 37.4592 154.258 38.0216 151.801 38.0216C149.309 38.0216 147.482 37.473 146.248 36.4502C144.999 35.3584 144.194 34.0404 143.818 32.487L143.661 31.8384L143.083 32.1711L140.306 33.7678L139.952 33.9715L140.081 34.3593C140.824 36.5872 142.166 38.4384 144.094 39.9057C146.056 41.3995 148.642 42.1211 151.801 42.1211C155.311 42.1211 158.155 41.2212 160.275 39.3677L160.275 39.3673C162.422 37.4859 163.5 35.0781 163.5 32.1819C163.5 30.1812 162.981 28.4191 161.929 26.917Z" fill="white" stroke="white"/>
</svg>
