<svg width="47" height="48" viewBox="0 0 47 48" fill="none" xmlns="http://www.w3.org/2000/svg">
<path d="M47 39.688C40.9198 45.559 32.5184 48.6196 23.728 47.6312C16.882 46.8452 10.519 43.7132 6.10026 38.6758C-0.557292 31.0661 -2.25408 19.4551 3.46081 10.4521C7.53782 3.27115 16.5638 -1.09936 25.2363 1.63965C33.8027 4.30721 39.3055 12.7148 36.56 21.5153C34.5097 27.9937 28.5356 32.2213 21.8545 30.7922C14.6785 29.1131 11.1789 21.9202 14.3957 15.9897C16.8937 11.512 21.8074 10.4402 25.3895 12.5957C30.091 15.4538 29.5136 21.2295 26.0022 23.4684C24.0226 24.695 21.4892 24.3615 19.9456 22.8372C18.2135 21.2414 18.2017 18.4548 19.8749 16.859L21.0297 18.0261C20.1341 18.9788 20.1931 20.5507 21.2418 21.4081C22.1962 22.2418 23.6927 22.3727 24.8121 21.5868C26.6974 20.2292 27.1216 16.6923 24.0226 15.0727C21.7602 13.8699 18.8026 14.6678 17.4004 17.5854C15.5976 21.4558 18.0132 25.7191 22.6793 26.5527C27.0274 27.1839 30.5388 24.2901 31.611 20.0386C33.084 14.1795 29.1012 9.18979 23.5395 7.79647C17.801 6.3436 12.1215 9.60659 9.90626 14.3344C6.46554 20.4793 7.9738 28.339 13.2645 33.1502C16.3046 35.9011 20.358 37.473 24.6236 37.7112C30.3738 38.0089 35.5702 35.7463 39.1995 31.8164L47 39.688Z" fill="#2F2F2F"/>
</svg>
