<svg width="30" height="64" viewBox="0 0 30 64" fill="none" xmlns="http://www.w3.org/2000/svg">
<path d="M16.989 42.277C20.443 44.105 22.797 47.735 22.797 51.915C22.797 57.936 17.918 62.814 11.898 62.814C5.879 62.814 1 57.935 1 51.915C1 47.735 3.354 44.105 6.807 42.277H6.808V6.092C6.808 3.28 9.087 1 11.898 1C14.711 1 16.989 3.279 16.989 6.092V42.277Z" stroke="#323232" stroke-width="2" stroke-miterlimit="10" stroke-linecap="round" stroke-linejoin="round"/>
<path d="M6.80713 15.4766H9.89613" stroke="#323232" stroke-miterlimit="10" stroke-linecap="round" stroke-linejoin="round"/>
<path d="M6.80713 19.8359H9.89613" stroke="#323232" stroke-miterlimit="10" stroke-linecap="round" stroke-linejoin="round"/>
<path d="M6.80713 24.1973H9.89613" stroke="#323232" stroke-miterlimit="10" stroke-linecap="round" stroke-linejoin="round"/>
<path d="M6.80713 28.5566H9.89613" stroke="#323232" stroke-miterlimit="10" stroke-linecap="round" stroke-linejoin="round"/>
<path d="M6.80713 32.9199H9.89613" stroke="#323232" stroke-miterlimit="10" stroke-linecap="round" stroke-linejoin="round"/>
<path d="M13.3205 46.7532C13.3205 46.5792 13.3205 46.5792 13.3205 46.4054V35.6547C13.3205 34.602 12.5923 33.9062 11.4905 33.9062C10.3885 33.9062 9.66031 34.602 9.66031 35.6547V46.4054C9.66031 46.5791 9.66031 46.5791 9.66031 46.7532C7.45646 47.4581 6 49.3805 6 51.6507C6 54.6258 8.38591 56.9052 11.5 56.9052C14.6141 56.9052 17 54.6258 17 51.6507C16.9905 49.3805 15.5244 47.4581 13.3205 46.7532Z" fill="#323232"/>
<path d="M29.8269 21.7888L28.5915 21.1025L29.6345 20.5053C29.8022 20.4276 29.8541 20.2111 29.7587 20.052C29.6616 19.889 29.4521 19.8546 29.2931 19.9438L27.9024 20.7268L25.6923 19.4905L27.9024 18.2668L29.293 19.0486C29.3365 19.0792 29.3924 19.097 29.4545 19.097C29.5724 19.097 29.6779 19.0435 29.7587 18.9417C29.8518 18.78 29.8022 18.566 29.6345 18.4884L28.5915 17.8912L29.8269 17.2049C29.9879 17.1158 30.0433 16.9159 29.9511 16.7516C29.8631 16.5937 29.6452 16.539 29.4793 16.6319L28.2376 17.3246L28.219 16.1302C28.2161 15.9456 28.07 15.7966 27.8776 15.7966C27.6852 15.7966 27.5347 15.9571 27.5362 16.1302L27.5485 17.7066L25.3509 18.9302V16.4473L26.7353 15.6884C26.8969 15.6005 26.9673 15.3955 26.8718 15.2351C26.7749 15.0721 26.5759 15.0237 26.4062 15.1154L25.3509 15.6884V14.3336C25.3509 14.149 25.1956 14 25.0032 14C24.8108 14 24.6618 14.149 24.6618 14.3336V15.7011L23.5691 15.1154C23.3989 15.025 23.2052 15.0759 23.1097 15.2351C23.0127 15.3981 23.073 15.598 23.24 15.6884L24.6618 16.4587V18.9175L22.4144 17.6709L22.4268 16.1302C22.4455 15.9571 22.284 15.7966 22.0916 15.7966H22.0792C21.8992 15.7966 21.7397 15.9456 21.7377 16.1302L21.7253 17.2889L20.5148 16.6204C20.3458 16.5262 20.1372 16.5822 20.0491 16.7389C19.9569 16.9044 20.0046 17.0992 20.1733 17.1934L21.3963 17.8734L20.3284 18.4884C20.1609 18.566 20.1085 18.7825 20.2105 18.9417C20.2762 19.0448 20.3719 19.097 20.5023 19.097C20.5705 19.097 20.6273 19.0805 20.6823 19.0486L22.0791 18.2554L24.3203 19.4905L22.0791 20.7383L20.6823 19.9438C20.5146 19.8495 20.2985 19.8941 20.2105 20.052C20.1183 20.2162 20.1684 20.4136 20.3284 20.5053L21.3963 21.1139L20.1733 21.8002C20.005 21.8944 19.9504 22.0931 20.0491 22.2548C20.1181 22.3668 20.2105 22.4216 20.3409 22.4216C20.3719 22.4216 20.434 22.4038 20.5148 22.3732L21.7253 21.7047L21.7377 22.8634C21.7397 23.0481 21.8992 23.1907 22.0792 23.1907H22.0916C22.284 23.1907 22.4283 23.0366 22.4268 22.8507L22.4144 21.3113L24.6618 20.0762V22.5222L23.24 23.2925C23.0703 23.3842 23.011 23.5841 23.1097 23.7458C23.1787 23.8591 23.2711 23.9139 23.4014 23.9139C23.4636 23.9139 23.5208 23.9037 23.5691 23.877L24.6618 23.281V24.6715C24.6618 24.8561 24.8108 25 25.0032 25C25.1956 25 25.3509 24.8561 25.3509 24.6715V23.304L26.4062 23.877C26.4545 23.9037 26.5117 23.9139 26.5677 23.9139C26.7042 23.9139 26.8048 23.8604 26.8718 23.7458C26.9661 23.5854 26.9052 23.3842 26.7353 23.2925L25.3509 22.5464V20.0634L27.5485 21.2871L27.5362 22.8507C27.5346 23.0366 27.6852 23.1907 27.8776 23.1907C28.0701 23.1907 28.2161 23.0481 28.219 22.8634L28.2376 21.6627L29.4793 22.3617C29.5272 22.3885 29.591 22.3974 29.6594 22.3974C29.7897 22.3974 29.8853 22.3452 29.9511 22.2421C30.053 22.0829 29.988 21.8779 29.8269 21.7888Z" fill="#323232"/>
</svg>
