<svg width="100" height="100" viewBox="0 0 100 100" fill="none" xmlns="http://www.w3.org/2000/svg">
<path d="M31.2683 89.5833C17.5806 83.0833 7.78569 69.8333 6.27878 54.1667H0C2.09293 79.8333 23.6919 100 50.0209 100L52.7836 99.875L36.8355 84L31.2683 89.5833ZM34.9937 62.3333C34.1984 62.3333 33.4868 62.2083 32.8171 62C32.1473 61.75 31.6032 61.4583 31.1427 61C30.6823 60.5833 30.3056 60.0833 30.0544 59.4583C29.8033 58.875 29.6777 58.2083 29.6777 57.5H24.2361C24.2361 59 24.5291 60.4167 25.1151 61.4583C25.7011 62.5 26.4964 63.5417 27.4592 64.3333C28.4638 65.0833 29.594 65.6667 30.8916 66.0417C32.1473 66.4583 33.4868 66.6667 34.91 66.6667C36.4588 66.6667 37.9238 66.4583 39.2214 66.0417C40.5609 65.625 41.7329 65 42.6957 64.2083C43.6584 63.4167 44.4538 62.5 44.9979 61.2083C45.5421 60 45.8351 58.6667 45.8351 57.1667C45.8351 56.375 45.7514 55.5833 45.5421 54.8333C45.3328 54.1667 45.0398 53.375 44.5793 52.7083C44.1607 52.0833 43.5747 51.4583 42.905 50.9167C42.1934 50.375 41.3562 50 40.3516 49.625C41.1888 49.25 41.8585 48.7917 42.5283 48.25C43.1561 47.7083 43.6584 47.125 44.077 46.5C44.4956 45.8333 44.7886 45.25 44.9979 44.5833C45.2072 43.9167 45.2909 43.25 45.2909 42.5833C45.2909 41.0833 45.0398 39.75 44.5375 38.5833C43.9514 37.5 43.3236 36.4583 42.4027 35.7083C41.5655 34.9167 40.4353 34.3333 39.1796 33.9167C37.882 33.5417 36.4588 33.3333 34.91 33.3333C33.4868 33.3333 32.0218 33.5417 30.7242 34C29.4684 34.4583 28.3382 35.0833 27.4173 35.875C26.5383 36.6667 25.8267 37.5 25.2825 38.6667C24.7802 39.75 24.5291 40.9167 24.5291 42.2083H29.9707C29.9707 41.5 30.0963 40.875 30.3474 40.3333C30.5986 39.7917 30.9334 39.2917 31.3939 38.9167C31.8543 38.5417 32.3566 38.2083 32.9845 38C33.6124 37.7917 34.2403 37.6667 34.9937 37.6667C36.6681 37.6667 37.9238 38.0833 38.7191 38.9583C39.5144 39.7917 39.933 41 39.933 42.5417C39.933 43.2917 39.7656 43.9583 39.5982 44.5833C39.3889 45.2083 39.0121 45.7083 38.5517 46.125C38.0913 46.5417 37.5052 46.875 36.8355 47.125C36.1658 47.375 35.3286 47.5 34.4077 47.5H31.1846V51.7917H34.4077C35.3286 51.7917 36.1658 51.875 36.9192 52.0833C37.6727 52.2917 38.3005 52.625 38.8028 53.0417C39.3052 53.5 39.7656 54.0417 40.0167 54.7083C40.3098 55.375 40.4353 56.25 40.4353 57.0833C40.4353 58.7917 39.933 60.0833 38.9703 60.9583C38.0075 61.9167 36.6681 62.3333 34.9937 62.3333ZM70.7828 37.6667C69.4433 36.2917 67.8527 35.2083 66.0109 34.4583C64.211 33.7083 62.1599 33.3333 59.8995 33.3333H50.0209V66.6667H59.6484C61.9506 66.6667 64.0854 66.2917 65.969 65.5417C67.8527 64.7917 69.4851 63.75 70.8246 62.375C72.1641 61 73.2524 59.3333 73.9221 57.4167C74.6337 55.4583 75.0105 53.2917 75.0105 50.875V49.2083C75.0105 46.7917 74.6337 44.625 73.9221 42.6667C73.2524 40.7083 72.1222 39.0417 70.7828 37.6667ZM69.0666 50.8333C69.0666 52.5833 68.941 54.1667 68.5643 55.5417C68.1457 56.9167 67.5597 58.125 66.7643 59.0833C65.969 60.0417 64.8807 60.7917 63.7924 61.2917C62.5785 61.7917 61.1972 62.0417 59.6484 62.0417H55.8393V38H59.8995C62.9134 38 65.2156 38.9583 66.7643 40.875C68.355 42.7917 69.0666 45.5417 69.0666 49.1667V50.8333ZM50.0209 0L47.2583 0.125L63.2064 16L68.7736 10.4167C82.4613 16.9167 92.2562 30.125 93.7212 45.8333H100C97.9071 20.1667 76.3499 0 50.0209 0Z" fill="#ABABAB"/>
</svg>
